<!-- Created with Inkscape (http://www.inkscape.org/) --><svg xmlns:inkscape="http://www.inkscape.org/namespaces/inkscape" xmlns:sodipodi="http://sodipodi.sourceforge.net/DTD/sodipodi-0.dtd" xmlns="http://www.w3.org/2000/svg" xmlns:svg="http://www.w3.org/2000/svg" width="9.4581423mm" height="8.7952805mm" viewBox="0 0 9.4581423 8.7952805" version="1.1" id="svg5" inkscape:version="1.1 (c68e22c387, 2021-05-23)" sodipodi:docname="multipage-export-_3k31p3b.svg">
  <sodipodi:namedview id="namedview7" pagecolor="#ffffff" bordercolor="#666666" borderopacity="1.0" inkscape:pageshadow="2" inkscape:pageopacity="0.0" inkscape:pagecheckerboard="0" inkscape:document-units="mm" showgrid="false" inkscape:zoom="3.2974943" inkscape:cx="-3869.4533" inkscape:cy="1328.4329" inkscape:window-width="1366" inkscape:window-height="708" inkscape:window-x="0" inkscape:window-y="28" inkscape:window-maximized="1" inkscape:current-layer="g48179"/>
  <defs id="defs2"/>
  <g inkscape:label="Layer 1" inkscape:groupmode="layer" id="layer1" transform="translate(1029.4277,-341.79233)">
    <g id="g48374" transform="translate(-5.4722257,1.2715658e-5)">
      <g id="g48283" transform="translate(0,-1.5875)">
        <g id="g48179" transform="translate(30.691667)">
          <g id="g23394" transform="matrix(0.07111614,0,0,0.07111614,-1011.8191,312.62063)">
            <path id="path12151" style="fill:none;stroke:#3d3846;stroke-width:7.93069;stroke-linecap:round;stroke-miterlimit:4;stroke-dasharray:none;stroke-opacity:1;paint-order:fill markers stroke" d="m -501.4985,451.38652 h 20.57229 c 0.83335,0 1.50424,0.67127 1.50424,1.50508 v 41.99201"/>
            <path id="path12153" style="color:#000000;fill:#3d3846;fill-opacity:1;stroke-width:3.77953;-inkscape-stroke:none;paint-order:fill markers stroke" d="m -2014.9491,1691.0286 h -240.4914 v 0 c -11.2047,0 -20.6914,9.4865 -20.6914,20.684 v 369.7589 c 0,11.1973 9.4867,20.684 20.6914,20.684 h 437.7682 c 11.2048,0 20.6841,-9.4867 20.6841,-20.684 v -97.2712 h -30 v 87.9552 h -419.1437 v -351.1269 h 179.2513" transform="scale(0.26458333)"/>
            <g id="g12159" transform="translate(-668.21352,358.01641)">
              <ellipse style="fill:#3584e4;fill-opacity:1;stroke:none;stroke-width:6.61458;stroke-linecap:round;stroke-opacity:1;paint-order:fill markers stroke" id="ellipse12155" cx="-161.405" cy="-151.94" transform="scale(-1)" rx="5.2648492" ry="5.2678127"/>
              <path id="path12157" style="fill:none;stroke:#3d3846;stroke-width:8.01506;stroke-linecap:round;stroke-miterlimit:4;stroke-dasharray:none;paint-order:fill markers stroke" d="m 160.67842,138.04938 h 34.29673 v 27.78125 h -34.29673 c -7.8335,0 -14.13988,-6.19522 -14.13988,-13.89063 0,-7.6954 6.30638,-13.89062 14.13988,-13.89062 z"/>
            </g>
            <g id="g23384">
              <path id="path12161" style="fill:none;fill-opacity:1;stroke:#3584e4;stroke-width:6.61458;stroke-linecap:round;stroke-miterlimit:4;stroke-dasharray:none;stroke-opacity:1;paint-order:fill markers stroke" d="m -567.21449,467.11231 53.84067,-31.10244 c 0.7217,-0.4169 1.63816,-0.1712 2.05483,0.5509 l 17.62877,30.55113"/>
              <path id="path12163" style="fill:none;stroke:#3d3846;stroke-width:9.42121;stroke-linecap:round;stroke-linejoin:miter;stroke-miterlimit:4;stroke-dasharray:none;stroke-opacity:1" d="m -577.58812,467.15613 h 93.83949"/>
            </g>
          </g>
        </g>
      </g>
    </g>
  </g>
</svg>