<!-- Created with Inkscape (http://www.inkscape.org/) --><svg xmlns:inkscape="http://www.inkscape.org/namespaces/inkscape" xmlns:sodipodi="http://sodipodi.sourceforge.net/DTD/sodipodi-0.dtd" xmlns="http://www.w3.org/2000/svg" xmlns:svg="http://www.w3.org/2000/svg" width="44.583778mm" height="17.67779mm" viewBox="0 0 44.583778 17.67779" version="1.1" id="svg5" inkscape:version="1.1 (c68e22c387, 2021-05-23)" sodipodi:docname="multipage-export-l1jd7w5x.svg">
  <sodipodi:namedview id="namedview7" pagecolor="#ffffff" bordercolor="#666666" borderopacity="1.0" inkscape:pageshadow="2" inkscape:pageopacity="0.0" inkscape:pagecheckerboard="0" inkscape:document-units="mm" showgrid="false" inkscape:zoom="3.0960328" inkscape:cx="-4447.6273" inkscape:cy="1445.8826" inkscape:window-width="1366" inkscape:window-height="708" inkscape:window-x="0" inkscape:window-y="28" inkscape:window-maximized="1" inkscape:current-layer="g96836"/>
  <defs id="defs2"/>
  <g inkscape:label="Layer 1" inkscape:groupmode="layer" id="layer1" transform="translate(1198.8588,-372.99588)">
    <g id="g96836" transform="matrix(0.83548053,0,0,0.83548053,-187.09185,68.547731)">
      <g id="g7943">
        <path style="fill:#ffffff;stroke-width:0.514205" d="m -1143.6883,278.78116 c -2.6869,-1.56194 -5.2849,-3.34438 -5.7735,-3.96096 -0.7356,-0.92827 -0.8903,-2.2542 -0.8998,-7.70998 -0.019,-6.53007 0,-6.60078 1.4026,-7.91504 2.4204,-2.26988 10.0164,-6.4048 11.7843,-6.41492 2.3473,-0.0136 12.2563,5.94799 13.0428,7.8468 0.3646,0.88029 0.522,3.6626 0.4143,7.32207 -0.1477,4.99146 -0.3296,6.07414 -1.1832,7.01601 -1.6502,1.82091 -10.7146,6.70689 -12.3928,6.68005 -0.8639,-0.0136 -3.5997,-1.23909 -6.3947,-2.86403 z m 9.91,-4.27145 c 1.067,-0.24771 2.5423,-0.84503 3.2782,-1.32738 l 1.3385,-0.87698 -1.5415,-1.54163 c -1.3024,-1.30227 -1.7064,-1.45355 -2.6018,-0.97427 -2.1871,1.17042 -6.784,0.15236 -6.784,-1.50231 0,-0.2578 2.7189,-0.53393 6.0418,-0.61361 l 6.0421,-0.14479 -0.1225,-2.01519 c -0.1924,-3.14068 -1.6817,-5.53867 -4.2577,-6.85486 -6.66,-3.4026 -14.2212,1.00084 -13.7224,7.99151 0.4204,5.89052 5.8644,9.36078 12.3301,7.85959 z m -6.8248,-10.22642 c 0,-1.03946 2.2093,-2.668 3.6195,-2.668 1.47,0 3.5794,1.51506 3.5794,2.57104 0,0.29383 -1.5427,0.5142 -3.5994,0.5142 -1.9798,0 -3.5995,-0.18774 -3.5995,-0.41724 z m 74.6788,11.95017 c -1.3576,-0.49586 -1.5089,-1.09466 -0.7161,-2.83453 0.5655,-1.24138 0.8643,-1.38225 1.5273,-0.72014 0.2353,0.23513 1.2673,0.56162 2.2934,0.72554 1.5421,0.24637 2.03,0.13317 2.8161,-0.65284 1.122,-1.12204 1.3321,-2.27883 0.2509,-1.38149 -1.0244,0.8502 -4.3046,0.71516 -5.7579,-0.23704 -3.3359,-2.18582 -3.3669,-7.27274 -0.058,-9.44125 1.3765,-0.90197 4.8881,-1.044 5.8604,-0.23704 0.4617,0.38321 0.6547,0.39428 0.6547,0.0376 0,-0.29902 0.8288,-0.50576 2.0276,-0.50576 h 2.0278 v 5.90082 c 0,6.63635 -0.4359,7.98071 -2.9773,9.18672 -1.617,0.76737 -6.0421,0.85612 -7.9496,0.15941 z m 6.0476,-8.33266 c 1.1507,-1.04152 1.0267,-2.2548 -0.321,-3.13784 -1.6431,-1.07659 -3.3609,-0.25954 -3.3609,1.59855 0,2.08593 2.1053,2.96609 3.6819,1.53929 z m -56.1145,3.61312 c -1.0345,-1.0346 -1.1878,-1.55799 -1.1878,-4.05533 0,-2.567 -0.094,-2.8674 -0.9012,-2.8674 -0.7296,0 -0.9013,-0.30039 -0.9013,-1.57706 0,-1.27668 0.1717,-1.57707 0.9013,-1.57707 0.7296,0 0.9012,-0.3004 0.9012,-1.57708 0,-1.56872 0.017,-1.57707 2.0277,-1.57707 2.0168,0 2.0275,0.009 2.0275,1.57707 0,1.4519 0.1074,1.57708 1.3519,1.57708 1.2444,0 1.3517,0.12517 1.3517,1.57707 0,1.45189 -0.1073,1.57706 -1.3517,1.57706 -1.2962,0 -1.3519,0.0812 -1.3519,1.9725 0,2.05317 0.7644,3.18116 1.8684,2.7575 0.4094,-0.15702 0.8231,0.26712 1.1782,1.20809 0.6816,1.80563 0.2532,2.15604 -2.6472,2.16567 -1.6507,0.005 -2.3235,-0.23771 -3.2668,-1.18103 z m 7.5689,0.59713 c -0.1242,-0.32494 -0.1686,-2.91019 -0.099,-5.74503 l 0.1278,-5.15427 2.1403,-0.13726 2.1404,-0.13727 v 5.88239 5.88237 h -2.0418 c -1.2685,0 -2.1277,-0.22374 -2.2686,-0.59079 z m 6.5633,-7.29456 v -7.88536 h 2.253 2.2529 v 7.88536 7.88536 h -2.2529 -2.253 z m 7.3455,7.20891 c -1.1982,-0.83917 -1.7187,-3.00654 -1.0308,-4.29178 0.6398,-1.19559 3.0478,-2.24124 5.161,-2.24124 1.8357,0 2.1291,-0.74907 0.4578,-1.16856 -1.0988,-0.27578 -1.8936,-0.16672 -3.4369,0.47138 -0.5398,0.22316 -0.937,-0.0874 -1.4645,-1.14459 -0.398,-0.79794 -0.7237,-1.50533 -0.7237,-1.57195 0,-0.38984 3.4841,-1.16729 5.231,-1.16729 4.6729,0 5.745,1.79214 6.0339,7.91589 v 3.87459 h -2.0279 c -1.2765,0 -2.0276,-0.20027 -2.0276,-0.54071 0,-0.42055 -0.1209,-0.42055 -0.5407,0 -0.7624,0.7624 -4.4773,0.67288 -5.6316,-0.13574 z m 5.6382,-3.04093 c 0.1159,-0.60967 -0.1583,-0.78853 -1.2086,-0.78853 -1.4316,0 -2.1137,0.5799 -1.6207,1.37759 0.4675,0.7564 2.6607,0.29977 2.8293,-0.58906 z m 6.8425,-2.14031 v -5.8577 h 2.0275 c 1.1988,0 2.0277,0.20674 2.0277,0.50576 0,0.35673 0.1929,0.34566 0.6547,-0.0375 0.3599,-0.29883 1.6234,-0.54332 2.8076,-0.54332 1.8387,0 2.3351,0.20384 3.4008,1.39644 1.1866,1.3281 1.0738,1.62006 1.2475,5.89523 v 4.49881 h -2.0275 -2.0277 v -3.51461 c 0,-3.74841 -0.3878,-4.59604 -2.102,-4.59604 -1.4482,0 -2.1628,1.2802 -1.9534,4.92688 v 3.18377 h -2.0277 -2.0275 z m -25.76,-7.32212 c -1.0788,-0.86927 -1.273,-1.94352 -0.5402,-2.98977 1.1976,-1.70969 4.6718,-0.95056 4.6718,1.02078 0,2.02116 -2.5554,3.23897 -4.1316,1.96899 z m -41.8503,-3.30591 c 0.7857,-2.18133 0.8874,-3.7607 0.3644,-5.65491 l -0.543,-1.96684 1.6667,1.61548 c 0.9167,0.88849 2.4173,1.76556 3.3344,1.94902 2.3728,0.47453 2.4635,1.05918 0.2278,1.46902 -1.0864,0.19914 -2.6847,1.06303 -3.6722,1.98466 -1.3361,1.24721 -1.6611,1.38951 -1.3781,0.60357 z m 23.3044,-0.62418 c -0.7772,-0.77716 -2.2799,-1.66808 -3.3395,-1.97983 l -1.9263,-0.56683 2.2202,-0.69181 c 1.2213,-0.38049 2.6707,-1.26428 3.2211,-1.96398 1.2531,-1.59315 1.6228,-1.27765 1.0092,0.86157 -0.3028,1.05561 -0.2828,2.19898 0.054,3.16881 0.8013,2.29877 0.331,2.74324 -1.2401,1.17207 z m -13.3646,-5.99111 c 0.9191,-1.0477 1.6712,-2.46168 1.6712,-3.14218 0,-1.91644 0.9033,-2.01779 1.2969,-0.14556 0.1943,0.9216 1.0801,2.4582 1.97,3.41463 l 1.618,1.73897 -1.5426,-0.41153 c -1.965,-0.52421 -3.2131,-0.51947 -5.142,0.0194 l -1.5427,0.43102 1.6712,-1.90491 z" id="path1320" inkscape:export-filename="/home/rivanfebrian123/logo-e-tilang.png" inkscape:export-xdpi="316.1651" inkscape:export-ydpi="316.1651" sodipodi:nodetypes="ssccsscssscscssssccssccssssscsssssssssscssccsssssssssssssssssssscccccccscccccccccccssssssssscsscsssssccsssssscccsssccccsssssscssssscscssscccsscscssccs" transform="matrix(0.55955612,0,0,0.55955612,-567.3063,227.32796)"/>
        <text xml:space="preserve" style="font-style:normal;font-variant:normal;font-weight:bold;font-stretch:normal;font-size:3.61663px;line-height:1.25;font-family:'Open Sans';-inkscape-font-specification:'Open Sans Bold';fill:#ffffff;stroke-width:0.090415" x="-1192.9335" y="384.68884" id="text1923"><tspan sodipodi:role="line" id="tspan1921" style="font-style:normal;font-variant:normal;font-weight:bold;font-stretch:normal;font-family:'Open Sans';-inkscape-font-specification:'Open Sans Bold';fill:#ffffff;stroke-width:0.090415" x="-1192.9335" y="384.68884">Kota Tegal</tspan></text>
      </g>
    </g>
  </g>
</svg>