<!-- Created with Inkscape (http://www.inkscape.org/) --><svg xmlns:inkscape="http://www.inkscape.org/namespaces/inkscape" xmlns:sodipodi="http://sodipodi.sourceforge.net/DTD/sodipodi-0.dtd" xmlns="http://www.w3.org/2000/svg" xmlns:svg="http://www.w3.org/2000/svg" width="8.5894985mm" height="8.327363mm" viewBox="0 0 8.5894985 8.327363" version="1.1" id="svg5" inkscape:version="1.1 (c68e22c387, 2021-05-23)" sodipodi:docname="multipage-export-fn74i1hj.svg">
  <sodipodi:namedview id="namedview7" pagecolor="#ffffff" bordercolor="#666666" borderopacity="1.0" inkscape:pageshadow="2" inkscape:pageopacity="0.0" inkscape:pagecheckerboard="0" inkscape:document-units="mm" showgrid="false" inkscape:zoom="3.2974943" inkscape:cx="-4281.8877" inkscape:cy="1328.4329" inkscape:window-width="1366" inkscape:window-height="708" inkscape:window-x="0" inkscape:window-y="28" inkscape:window-maximized="1" inkscape:current-layer="g48187"/>
  <defs id="defs2"/>
  <g inkscape:label="Layer 1" inkscape:groupmode="layer" id="layer1" transform="translate(1142.2751,-342.02628)">
    <g id="g48374" transform="translate(-5.4722257,1.2715658e-5)">
      <g id="g48283" transform="translate(0,-1.5875)">
        <g id="g48187" transform="translate(17.757314)">
          <g transform="matrix(0.03570947,-0.03570947,0.03570947,0.03570947,-1186.5723,328.08128)" fill="#555555" id="g8" style="fill:#3d3846">
            <path transform="translate(0,552.36)" d="m 185.94,162.5 c -5.7856,0 -10.443,4.6578 -10.443,10.443 v 42.613 c 0,5.7856 4.6578,10.443 10.443,10.443 h 2.0566 v -63.5 z m 10.707,0 V 226 h 68.2 v -63.5 z m 76.85,0 V 226 h 2.0566 c 5.7856,0 10.443,-4.6578 10.443,-10.443 v -42.613 c 0,-5.7856 -4.6578,-10.443 -10.443,-10.443 z" id="path2" style="fill:#3d3846"/>
            <rect x="226" y="746.60999" width="9.5" height="48.5" ry="0" id="rect4" style="fill:#3d3846"/>
            <path d="m 226,785.61 h 9.5 c 1.662,0 2.88835,1.34174 3,3 l 6.81768,101.25589 c 0.15749,2.33907 -1.8874,4.2317 -4.2317,4.2317 h -13.4 c -2.3444,0 -4.22119,-1.88735 -4.2317,-4.2317 L 223.0006,788.61 c -0.007,-1.662 1.338,-3 3,-3 z" id="path6" sodipodi:nodetypes="cssssssssc" style="fill:#3d3846"/>
          </g>
        </g>
      </g>
    </g>
  </g>
</svg>