<!-- Created with Inkscape (http://www.inkscape.org/) --><svg xmlns:inkscape="http://www.inkscape.org/namespaces/inkscape" xmlns:sodipodi="http://sodipodi.sourceforge.net/DTD/sodipodi-0.dtd" xmlns="http://www.w3.org/2000/svg" xmlns:svg="http://www.w3.org/2000/svg" width="5.0496693mm" height="4.1632986mm" viewBox="0 0 5.0496693 4.1632986" version="1.1" id="svg5" inkscape:version="1.1 (c68e22c387, 2021-05-23)" sodipodi:docname="multipage-export-6rdodrjr.svg">
  <sodipodi:namedview id="namedview7" pagecolor="#ffffff" bordercolor="#666666" borderopacity="1.0" inkscape:pageshadow="2" inkscape:pageopacity="0.0" inkscape:pagecheckerboard="0" inkscape:document-units="mm" showgrid="false" inkscape:zoom="10.531914" inkscape:cx="-4682.5295" inkscape:cy="1662.3284" inkscape:window-width="1366" inkscape:window-height="708" inkscape:window-x="0" inkscape:window-y="28" inkscape:window-maximized="1" inkscape:current-layer="g48195"/>
  <defs id="defs2"/>
  <g inkscape:label="Layer 1" inkscape:groupmode="layer" id="layer1" transform="translate(1244.0681,-438.27551)">
    <g id="g96836" transform="matrix(0.83548053,0,0,0.83548053,-187.09185,68.547731)">
      <g id="g48374" transform="matrix(0.55955611,0,0,0.55955611,-576.29015,251.31195)">
        <g id="g48283" transform="translate(0,-1.5875)">
          <g id="g48195" transform="translate(-18.06817)">
            <g id="g28826" transform="matrix(0.92806388,0,0,0.92806388,-79.904412,85.803712)">
              <path id="rect25301" style="font-variation-settings:normal;opacity:1;vector-effect:none;fill:none;fill-opacity:1;stroke:#3d3846;stroke-width:0.607717;stroke-linecap:round;stroke-linejoin:bevel;stroke-miterlimit:4;stroke-dasharray:none;stroke-dashoffset:0;stroke-opacity:1;-inkscape-stroke:none;paint-order:fill markers stroke;stop-color:#000000;stop-opacity:1" d="m -1220.5624,277.78583 h 11.031 v 8.98805 h -11.031 z" sodipodi:nodetypes="ccccc"/>
              <path d="m -1215.3998,280.99448 q 0,0.19934 -0.05,0.38108 -0.047,0.17882 -0.1525,0.34591 -0.1026,0.1671 -0.2843,0.29901 -0.1788,0.13191 -0.4251,0.2052 l 1.2576,1.74127 h -0.9615 l -1.1667,-1.61522 h -0.7065 v 1.61522 h -0.7387 v -4.16556 h 1.7735 q 0.1319,0 0.2404,0.009 0.1114,0.006 0.2668,0.0352 0.1582,0.0264 0.2784,0.0733 0.1232,0.0469 0.2521,0.13778 0.132,0.0909 0.217,0.214 0.088,0.12018 0.1436,0.3078 0.056,0.18468 0.056,0.41626 z m -2.4888,-0.51593 v 1.19309 h 0.6801 q 0.1759,0 0.3107,-0.0117 0.1349,-0.0117 0.2785,-0.0469 0.1437,-0.0381 0.2345,-0.1026 0.094,-0.0645 0.1525,-0.17882 0.061,-0.11432 0.061,-0.26969 0,-0.58335 -0.8999,-0.58335 z" id="path1985" style="font-weight:bold;font-size:6.00357px;line-height:1.25;font-family:Cantarell;-inkscape-font-specification:'Cantarell Bold';fill:#3d3846;stroke-width:0.150089"/>
              <path d="m -1212.7351,281.015 q 0.2198,0 0.425,0.044 0.2052,0.044 0.4046,0.15243 0.1993,0.10554 0.3459,0.2697 0.1465,0.16122 0.2374,0.42212 0.091,0.25797 0.091,0.58629 0,0.7182 -0.4339,1.1286 -0.4338,0.40747 -1.1696,0.40747 -0.343,0 -0.6713,-0.0997 v 1.59763 h -0.7504 v -4.45284 h 0.5335 l 0.067,0.13777 q 0.4485,-0.19347 0.9205,-0.19347 z m -0.1906,0.63905 q -0.2902,0 -0.5804,0.1026 v 1.56245 q 0.3049,0.088 0.5892,0.088 0.1319,0 0.2551,-0.0205 0.1231,-0.0205 0.2579,-0.0762 0.1349,-0.0586 0.2345,-0.1495 0.1,-0.0909 0.1642,-0.24331 0.064,-0.15537 0.064,-0.35471 0,-0.21985 -0.067,-0.38694 -0.064,-0.17003 -0.1642,-0.26383 -0.1,-0.0967 -0.2374,-0.1583 -0.1378,-0.0616 -0.2609,-0.0791 -0.1232,-0.0205 -0.2551,-0.0205 z" id="path1987" style="font-weight:bold;font-size:6.00357px;line-height:1.25;font-family:Cantarell;-inkscape-font-specification:'Cantarell Bold';fill:#3d3846;stroke-width:0.150089"/>
            </g>
          </g>
        </g>
      </g>
    </g>
  </g>
</svg>