<?xml version="1.0" encoding="UTF-8"?>
<svg width="4.2333mm" height="4.2333mm" version="1.1" viewBox="0 0 4.2333 4.2333" xmlns="http://www.w3.org/2000/svg" xmlns:xlink="http://www.w3.org/1999/xlink">
<defs>
<linearGradient id="a" x1="-1912.2" x2="-1881" y1="628.35" y2="661.18" gradientUnits="userSpaceOnUse">
<stop stop-color="#62a0ea" offset="0"/>
<stop stop-color="#33d17a" offset="1"/>
</linearGradient>
</defs>
<g transform="translate(-178.74 -39.88)">
<g transform="matrix(2.8125 0 0 2.8125 5375.9 -1744.7)">
<rect x="-1932" y="634.53" width="16.933" height="16.933" fill="none" stop-color="#000000" style="-inkscape-stroke:none;font-variation-settings:normal"/>
<path d="m-1926.6 650.07c-1.2285-0.71415-2.4166-1.5291-2.6398-1.811-0.3364-0.42443-0.4071-1.0307-0.4115-3.5252-0.01-2.9857 0-3.0181 0.6415-3.619 1.1068-1.0379 4.5797-2.9284 5.388-2.9331 1.0731-6e-3 5.6039 2.7196 5.9635 3.5878 0.1667 0.40249 0.2387 1.6746 0.1894 3.3478-0.066 2.2822-0.1508 2.7773-0.5409 3.2079-0.7545 0.83256-4.899 3.0666-5.6664 3.0543-0.395-6e-3 -1.646-0.56654-2.9238-1.3095zm4.5313-1.953c0.4875-0.11325 1.1622-0.38634 1.4987-0.60688l0.612-0.40098-0.7049-0.70489c-0.5954-0.59541-0.7802-0.6646-1.1896-0.44545-0.9999 0.53514-3.1016 0.0695-3.1016-0.6869 0-0.11787 1.243-0.24413 2.7624-0.28056l2.7624-0.0661-0.055-0.9214c-0.089-1.436-0.7691-2.5324-1.9468-3.1342-3.045-1.5557-6.5023 0.45761-6.2743 3.6539 0.1922 2.6933 2.6813 4.28 5.6378 3.5936zm-3.1207-4.6758c0-0.47524 1.0102-1.2199 1.6549-1.2199 0.6722 0 1.6365 0.69272 1.6365 1.1755 0 0.13435-0.7051 0.23513-1.6455 0.23513-0.9052 0-1.6459-0.086-1.6459-0.19081zm-4.1334-3.6885c0.3595-0.99737 0.4059-1.7195 0.1668-2.5856l-0.2483-0.89928 0.7621 0.73864c0.4189 0.40623 1.1052 0.80725 1.5244 0.89113 1.085 0.21697 1.1264 0.48428 0.1043 0.67167-0.4969 0.0911-1.2277 0.48605-1.6791 0.90745-0.611 0.57023-0.7595 0.63533-0.6302 0.27597zm10.655-0.28539c-0.3552-0.35534-1.0425-0.7627-1.5267-0.90524l-0.881-0.25919 1.0151-0.31629c0.5587-0.17398 1.221-0.57808 1.4728-0.89797 0.573-0.72844 0.7422-0.58418 0.4614 0.39392-0.1382 0.48263-0.1292 1.0054 0.025 1.4489 0.3665 1.0511 0.1512 1.2543-0.5671 0.53591zm-6.1105-2.7393c0.4203-0.47903 0.764-1.1255 0.764-1.4367 0-0.87626 0.4133-0.92259 0.593-0.0665 0.089 0.42137 0.4942 1.124 0.9007 1.5613l0.7399 0.79509-0.7054-0.18815c-0.8982-0.23971-1.4689-0.23753-2.351 9e-3l-0.7054 0.1971 0.7642-0.871z" fill="#3584e4" stop-color="#000000" style="-inkscape-stroke:none;font-variation-settings:normal"/>
</g>
<g transform="matrix(2.4902 0 0 2.4902 4798.4 -1537.6)">
<rect x="-1907.8" y="632.8" width="20.4" height="20.4" fill="url(#a)" stop-color="#000000" style="-inkscape-stroke:none;font-variation-settings:normal"/>
<path d="m-1900.6 650.07c-1.2285-0.71415-2.4166-1.5291-2.6398-1.811-0.3364-0.42443-0.4071-1.0307-0.4115-3.5252-0.01-2.9857 0-3.0181 0.6415-3.619 1.1068-1.0379 4.5797-2.9284 5.388-2.9331 1.0731-6e-3 5.6039 2.7196 5.9635 3.5878 0.1667 0.40249 0.2387 1.6746 0.1894 3.3478-0.066 2.2822-0.1508 2.7773-0.5409 3.2079-0.7545 0.83256-4.899 3.0666-5.6664 3.0543-0.395-6e-3 -1.646-0.56654-2.9238-1.3095zm4.5313-1.953c0.4875-0.11325 1.1622-0.38634 1.4987-0.60688l0.612-0.40098-0.7049-0.70489c-0.5954-0.59541-0.7802-0.6646-1.1896-0.44545-0.9999 0.53514-3.1016 0.0695-3.1016-0.6869 0-0.11787 1.243-0.24413 2.7624-0.28056l2.7624-0.0661-0.055-0.9214c-0.089-1.436-0.7691-2.5324-1.9468-3.1342-3.045-1.5557-6.5023 0.45761-6.2743 3.6539 0.1922 2.6933 2.6813 4.28 5.6378 3.5936zm-3.1207-4.6758c0-0.47524 1.0102-1.2199 1.6549-1.2199 0.6722 0 1.6365 0.69272 1.6365 1.1755 0 0.13435-0.7051 0.23513-1.6455 0.23513-0.9052 0-1.6459-0.086-1.6459-0.19081zm-4.1334-3.6885c0.3595-0.99737 0.4059-1.7195 0.1668-2.5856l-0.2483-0.89928 0.7621 0.73864c0.4189 0.40623 1.1052 0.80725 1.5244 0.89113 1.085 0.21697 1.1264 0.48428 0.1043 0.67167-0.4969 0.0911-1.2277 0.48605-1.6791 0.90745-0.611 0.57023-0.7595 0.63533-0.6302 0.27597zm10.655-0.28539c-0.3552-0.35534-1.0425-0.7627-1.5267-0.90524l-0.881-0.25919 1.0151-0.31629c0.5587-0.17398 1.221-0.57808 1.4728-0.89797 0.573-0.72844 0.7422-0.58418 0.4614 0.39392-0.1382 0.48263-0.1292 1.0054 0.025 1.4489 0.3665 1.0511 0.1512 1.2543-0.5671 0.53591zm-6.1105-2.7393c0.4203-0.47903 0.764-1.1255 0.764-1.4367 0-0.87626 0.4133-0.92259 0.593-0.0665 0.089 0.42137 0.4942 1.124 0.9007 1.5613l0.7399 0.79509-0.7054-0.18815c-0.8982-0.23971-1.4689-0.23753-2.351 9e-3l-0.7054 0.1971 0.7642-0.871z" fill="#fff" stop-color="#000000" style="-inkscape-stroke:none;font-variation-settings:normal"/>
</g>
<g transform="matrix(.25 0 0 .25 661.74 -118.75)">
<rect x="-1932" y="634.53" width="16.933" height="16.933" fill="none" stop-color="#000000" style="-inkscape-stroke:none;font-variation-settings:normal"/>
<path d="m-1926.6 650.07c-1.2285-0.71415-2.4166-1.5291-2.6398-1.811-0.3364-0.42443-0.4071-1.0307-0.4115-3.5252-0.01-2.9857 0-3.0181 0.6415-3.619 1.1068-1.0379 4.5797-2.9284 5.388-2.9331 1.0731-6e-3 5.6039 2.7196 5.9635 3.5878 0.1667 0.40249 0.2387 1.6746 0.1894 3.3478-0.066 2.2822-0.1508 2.7773-0.5409 3.2079-0.7545 0.83256-4.899 3.0666-5.6664 3.0543-0.395-6e-3 -1.646-0.56654-2.9238-1.3095zm4.5313-1.953c0.4875-0.11325 1.1622-0.38634 1.4987-0.60688l0.612-0.40098-0.7049-0.70489c-0.5954-0.59541-0.7802-0.6646-1.1896-0.44545-0.9999 0.53514-3.1016 0.0695-3.1016-0.6869 0-0.11787 1.243-0.24413 2.7624-0.28056l2.7624-0.0661-0.055-0.9214c-0.089-1.436-0.7691-2.5324-1.9468-3.1342-3.045-1.5557-6.5023 0.45761-6.2743 3.6539 0.1922 2.6933 2.6813 4.28 5.6378 3.5936zm-3.1207-4.6758c0-0.47524 1.0102-1.2199 1.6549-1.2199 0.6722 0 1.6365 0.69272 1.6365 1.1755 0 0.13435-0.7051 0.23513-1.6455 0.23513-0.9052 0-1.6459-0.086-1.6459-0.19081zm-4.1334-3.6885c0.3595-0.99737 0.4059-1.7195 0.1668-2.5856l-0.2483-0.89928 0.7621 0.73864c0.4189 0.40623 1.1052 0.80725 1.5244 0.89113 1.085 0.21697 1.1264 0.48428 0.1043 0.67167-0.4969 0.0911-1.2277 0.48605-1.6791 0.90745-0.611 0.57023-0.7595 0.63533-0.6302 0.27597zm10.655-0.28539c-0.3552-0.35534-1.0425-0.7627-1.5267-0.90524l-0.881-0.25919 1.0151-0.31629c0.5587-0.17398 1.221-0.57808 1.4728-0.89797 0.573-0.72844 0.7422-0.58418 0.4614 0.39392-0.1382 0.48263-0.1292 1.0054 0.025 1.4489 0.3665 1.0511 0.1512 1.2543-0.5671 0.53591zm-6.1105-2.7393c0.4203-0.47903 0.764-1.1255 0.764-1.4367 0-0.87626 0.4133-0.92259 0.593-0.0665 0.089 0.42137 0.4942 1.124 0.9007 1.5613l0.7399 0.79509-0.7054-0.18815c-0.8982-0.23971-1.4689-0.23753-2.351 9e-3l-0.7054 0.1971 0.7642-0.871z" stop-color="#000000" style="-inkscape-stroke:none;font-variation-settings:normal"/>
</g>
</g>
</svg>
