<?xml version="1.0" encoding="UTF-8"?>
<svg width="33.106mm" height="12.883mm" version="1.1" viewBox="0 0 33.106 12.883" xmlns="http://www.w3.org/2000/svg">
<g transform="translate(1375.9 -395.41)">
<g transform="matrix(1.0704 0 0 1.0704 92.712 -26.515)" stroke-width=".99573">
<g transform="matrix(.30295 0 0 .30295 -1023.8 320.12)" stroke-width=".99573">
<g transform="matrix(1.9132 0 0 1.9132 1167.2 -452.68)" fill="#fff">
<path transform="matrix(.55956 0 0 .55956 -567.31 227.33)" d="m-1143.7 278.78c-2.6869-1.5619-5.2849-3.3444-5.7735-3.961-0.7356-0.92827-0.8903-2.2542-0.8998-7.71-0.019-6.5301 0-6.6008 1.4026-7.915 2.4204-2.2699 10.016-6.4048 11.784-6.4149 2.3473-0.0136 12.256 5.948 13.043 7.8468 0.3646 0.88029 0.522 3.6626 0.4143 7.3221-0.1477 4.9915-0.3296 6.0741-1.1832 7.016-1.6502 1.8209-10.715 6.7069-12.393 6.68-0.8639-0.0136-3.5997-1.2391-6.3947-2.864zm9.91-4.2714c1.067-0.24771 2.5423-0.84503 3.2782-1.3274l1.3385-0.87698-1.5415-1.5416c-1.3024-1.3023-1.7064-1.4536-2.6018-0.97427-2.1871 1.1704-6.784 0.15236-6.784-1.5023 0-0.2578 2.7189-0.53393 6.0418-0.61361l6.0421-0.14479-0.1225-2.0152c-0.1924-3.1407-1.6817-5.5387-4.2577-6.8549-6.66-3.4026-14.221 1.0008-13.722 7.9915 0.4204 5.8905 5.8644 9.3608 12.33 7.8596zm-6.8248-10.226c0-1.0395 2.2093-2.668 3.6195-2.668 1.47 0 3.5794 1.5151 3.5794 2.571 0 0.29383-1.5427 0.5142-3.5994 0.5142-1.9798 0-3.5995-0.18774-3.5995-0.41724zm74.679 11.95c-1.3576-0.49586-1.5089-1.0947-0.7161-2.8345 0.5655-1.2414 0.8643-1.3822 1.5273-0.72014 0.2353 0.23513 1.2673 0.56162 2.2934 0.72554 1.5421 0.24637 2.03 0.13317 2.8161-0.65284 1.122-1.122 1.3321-2.2788 0.2509-1.3815-1.0244 0.8502-4.3046 0.71516-5.7579-0.23704-3.3359-2.1858-3.3669-7.2727-0.058-9.4412 1.3765-0.90197 4.8881-1.044 5.8604-0.23704 0.4617 0.38321 0.6547 0.39428 0.6547 0.0376 0-0.29902 0.8288-0.50576 2.0276-0.50576h2.0278v5.9008c0 6.6364-0.4359 7.9807-2.9773 9.1867-1.617 0.76737-6.0421 0.85612-7.9496 0.15941zm6.0476-8.3327c1.1507-1.0415 1.0267-2.2548-0.321-3.1378-1.6431-1.0766-3.3609-0.25954-3.3609 1.5986 0 2.0859 2.1053 2.9661 3.6819 1.5393zm-56.114 3.6131c-1.0345-1.0346-1.1878-1.558-1.1878-4.0553 0-2.567-0.094-2.8674-0.9012-2.8674-0.7296 0-0.9013-0.30039-0.9013-1.5771 0-1.2767 0.1717-1.5771 0.9013-1.5771s0.9012-0.3004 0.9012-1.5771c0-1.5687 0.017-1.5771 2.0277-1.5771 2.0168 0 2.0275 9e-3 2.0275 1.5771 0 1.4519 0.1074 1.5771 1.3519 1.5771 1.2444 0 1.3517 0.12517 1.3517 1.5771 0 1.4519-0.1073 1.5771-1.3517 1.5771-1.2962 0-1.3519 0.0812-1.3519 1.9725 0 2.0532 0.7644 3.1812 1.8684 2.7575 0.4094-0.15702 0.8231 0.26712 1.1782 1.2081 0.6816 1.8056 0.2532 2.156-2.6472 2.1657-1.6507 5e-3 -2.3235-0.23771-3.2668-1.181zm7.5689 0.59713c-0.1242-0.32494-0.1686-2.9102-0.099-5.745l0.1278-5.1543 4.2807-0.27453v11.765h-2.0418c-1.2685 0-2.1277-0.22374-2.2686-0.59079zm6.5633-7.2946v-7.8854h4.5059v15.771h-4.5059zm7.3455 7.2089c-1.1982-0.83917-1.7187-3.0065-1.0308-4.2918 0.6398-1.1956 3.0478-2.2412 5.161-2.2412 1.8357 0 2.1291-0.74907 0.4578-1.1686-1.0988-0.27578-1.8936-0.16672-3.4369 0.47138-0.5398 0.22316-0.937-0.0874-1.4645-1.1446-0.398-0.79794-0.7237-1.5053-0.7237-1.572 0-0.38984 3.4841-1.1673 5.231-1.1673 4.6729 0 5.745 1.7921 6.0339 7.9159v3.8746h-2.0279c-1.2765 0-2.0276-0.20027-2.0276-0.54071 0-0.42055-0.1209-0.42055-0.5407 0-0.7624 0.7624-4.4773 0.67288-5.6316-0.13574zm5.6382-3.0409c0.1159-0.60967-0.1583-0.78853-1.2086-0.78853-1.4316 0-2.1137 0.5799-1.6207 1.3776 0.4675 0.7564 2.6607 0.29977 2.8293-0.58906zm6.8425-2.1403v-5.8577h2.0275c1.1988 0 2.0277 0.20674 2.0277 0.50576 0 0.35673 0.1929 0.34566 0.6547-0.0375 0.3599-0.29883 1.6234-0.54332 2.8076-0.54332 1.8387 0 2.3351 0.20384 3.4008 1.3964 1.1866 1.3281 1.0738 1.6201 1.2475 5.8952v4.4988h-4.0552v-3.5146c0-3.7484-0.3878-4.596-2.102-4.596-1.4482 0-2.1628 1.2802-1.9534 4.9269v3.1838h-4.0552zm-25.76-7.3221c-1.0788-0.86927-1.273-1.9435-0.5402-2.9898 1.1976-1.7097 4.6718-0.95056 4.6718 1.0208 0 2.0212-2.5554 3.239-4.1316 1.969zm-41.85-3.3059c0.7857-2.1813 0.8874-3.7607 0.3644-5.6549l-0.543-1.9668 1.6667 1.6155c0.9167 0.88849 2.4173 1.7656 3.3344 1.949 2.3728 0.47453 2.4635 1.0592 0.2278 1.469-1.0864 0.19914-2.6847 1.063-3.6722 1.9847-1.3361 1.2472-1.6611 1.3895-1.3781 0.60357zm23.304-0.62418c-0.7772-0.77716-2.2799-1.6681-3.3395-1.9798l-1.9263-0.56683 2.2202-0.69181c1.2213-0.38049 2.6707-1.2643 3.2211-1.964 1.2531-1.5932 1.6228-1.2776 1.0092 0.86157-0.3028 1.0556-0.2828 2.199 0.054 3.1688 0.8013 2.2988 0.331 2.7432-1.2401 1.1721zm-13.365-5.9911c0.9191-1.0477 1.6712-2.4617 1.6712-3.1422 0-1.9164 0.9033-2.0178 1.2969-0.14556 0.1943 0.9216 1.0801 2.4582 1.97 3.4146l1.618 1.739-1.5426-0.41153c-1.965-0.52421-3.2131-0.51947-5.142 0.0194l-1.5427 0.43102 1.6712-1.9049z" stroke-width=".51201"/>
<path transform="matrix(.31668 0 0 .31668 223.93 -82.046)" d="m-4412.2 1464.5v6.4414c0 0.6776 0.1938 1.2031 0.582 1.5761 0.3877 0.3648 0.9302 0.5462 1.6211 0.5469 0.3184-4e-4 0.6263-0.05 0.9219-0.1484l-0.08-1.3809c-0.053 0.03-0.1276 0.057-0.2265 0.08-0.093 0.023-0.1849 0.033-0.2754 0.033-0.244 0-0.4335-0.068-0.5703-0.2051-0.1284-0.1446-0.1934-0.3466-0.1934-0.6054v-6.3379zm-26.93 0.3418c-0.6777 0-1.3351 0.084-1.9746 0.2519-0.6396 0.1675-1.2331 0.4148-1.7813 0.7422l0.627 1.3809c0.6928-0.3958 1.4307-0.6494 2.2148-0.7637v6.5195h1.8516v-6.5195c0.7844 0.1142 1.5181 0.3678 2.2031 0.7637l0.6289-1.3809c-0.5406-0.3273-1.1341-0.5746-1.7812-0.7422-0.6396-0.1676-1.3031-0.2519-1.9883-0.2519zm-33.986 0.1367v7.9941h1.8398v-2.0195l1.0723-1.1211 2.5586 3.1406h2.1582l-3.5059-4.4297 3.3125-3.5644h-2.0566l-3.5391 3.7344v-3.7344zm15.52 0.4922v5.3906c0 0.7233 0.1997 1.2715 0.5957 1.6445 0.3958 0.3731 0.9627 0.5586 1.7012 0.5586 0.274 0 0.5357-0.031 0.7871-0.092 0.2591-0.068 0.4756-0.1674 0.6504-0.2969l-0.4649-1.2558c-0.2132 0.1522-0.4583 0.2285-0.7324 0.2285-0.2425 0-0.4281-0.068-0.5586-0.2051-0.1305-0.1446-0.1953-0.3466-0.1953-0.6054v-2.502h1.5176v-1.3691h-1.5176v-1.4961zm-4.5215 1.2675c-0.6471 0-1.2304 0.1361-1.748 0.4102-0.5101 0.2665-0.9098 0.6395-1.1993 1.1191-0.2892 0.4797-0.4336 1.0257-0.4336 1.6348s0.1444 1.1532 0.4336 1.6328c0.2895 0.4797 0.6892 0.8568 1.1993 1.1309 0.5176 0.2664 1.1009 0.3984 1.748 0.3984s1.2263-0.132 1.7363-0.3984c0.5103-0.2741 0.91-0.6512 1.1992-1.1309 0.2893-0.4796 0.4336-1.0237 0.4336-1.6328s-0.1443-1.1551-0.4336-1.6348c-0.2892-0.4796-0.6889-0.8526-1.1992-1.1191-0.51-0.2741-1.0892-0.4102-1.7363-0.4102zm11.684 0c-0.5785 0-1.104 0.1299-1.5762 0.3887-0.4644 0.2589-0.8311 0.6278-1.0976 1.1074-0.2665 0.4797-0.3985 1.0361-0.3985 1.668s0.132 1.1864 0.3985 1.666c0.2665 0.4797 0.6332 0.8486 1.0976 1.1074 0.4722 0.2589 0.9977 0.3887 1.5762 0.3887 0.8376 0 1.4765-0.2659 1.918-0.7988v0.707h1.7011v-6.1426h-1.7812v0.6504c-0.4417-0.4948-1.0537-0.7422-1.8379-0.7422zm17.986 0c-0.6244 0-1.1869 0.1361-1.6894 0.4102-0.4947 0.2665-0.8883 0.6436-1.1778 1.1309-0.2816 0.4796-0.4218 1.0215-0.4218 1.623 0 0.6091 0.1443 1.1532 0.4336 1.6328 0.2894 0.4797 0.7015 0.8568 1.2343 1.1309 0.5331 0.2664 1.1451 0.3984 1.8379 0.3984 1.1115 0 1.9565-0.3298 2.5352-0.9922l-0.9473-1.0293c-0.213 0.2056-0.4459 0.3581-0.6973 0.4571-0.2435 0.091-0.5259 0.1367-0.8457 0.1367-0.4035 0-0.7456-0.076-1.0273-0.2285-0.273-0.1523-0.475-0.3791-0.6055-0.6836l4.545-0.8809c0-0.6395-0.1444-1.1918-0.4336-1.6562-0.2817-0.4721-0.6609-0.8287-1.1407-1.0723-0.4795-0.2512-1.0133-0.377-1.5996-0.377zm6.9883 0c-0.5635 0-1.0808 0.1258-1.5527 0.377-0.4644 0.2436-0.8334 0.5899-1.1075 1.0391-0.274 0.4492-0.4101 0.9665-0.4101 1.5527s0.1361 1.1035 0.4101 1.5527c0.2741 0.4492 0.6431 0.7996 1.1075 1.0508 0.4719 0.2436 0.9892 0.3652 1.5527 0.3652 0.8299 0 1.477-0.2535 1.9414-0.7636v0.2617c0 0.5634-0.1485 0.9818-0.4453 1.2559-0.2895 0.2817-0.7408 0.4238-1.3574 0.4238-0.396 0-0.7935-0.066-1.1895-0.1953-0.3957-0.1218-0.7215-0.2888-0.9804-0.502l-0.709 1.2793c0.3501 0.2741 0.7912 0.4843 1.3242 0.6289s1.0975 0.2168 1.6914 0.2168c1.1267 0 1.9821-0.2741 2.5684-0.8223 0.5862-0.5481 0.8808-1.3868 0.8808-2.5136v-5.1153h-1.6914v0.7871c-0.4644-0.5862-1.1425-0.8789-2.0332-0.8789zm7.9941 0c-0.5787 0-1.1022 0.1299-1.5742 0.3887-0.4644 0.2589-0.8311 0.6278-1.0976 1.1074-0.2665 0.4797-0.3985 1.0361-0.3985 1.668s0.132 1.1864 0.3985 1.666c0.2665 0.4797 0.6332 0.8486 1.0976 1.1074 0.472 0.2589 0.9955 0.3887 1.5742 0.3887 0.8375 0 1.4783-0.2659 1.92-0.7988v0.707h1.7011v-6.1426h-1.7812v0.6504c-0.4417-0.4948-1.0557-0.7422-1.8399-0.7422zm-14.982 1.3477c0.3655 0 0.6786 0.095 0.9375 0.2852 0.2583 0.1903 0.4295 0.4458 0.5137 0.7656l-2.9922 0.582c0.015-0.5101 0.1636-0.9099 0.4453-1.1992s0.6465-0.4336 1.0957-0.4336zm-29.67 0.1133c0.4568 0 0.8299 0.1566 1.1191 0.4687 0.2971 0.3046 0.4454 0.7167 0.4454 1.2344s-0.1483 0.932-0.4454 1.2441c-0.2892 0.3046-0.6623 0.4571-1.1191 0.4571s-0.834-0.1525-1.1309-0.4571c-0.297-0.3121-0.4453-0.7264-0.4453-1.2441s0.1483-0.9298 0.4453-1.2344c0.2969-0.3121 0.6741-0.4687 1.1309-0.4687zm11.992 0c0.4492 0 0.8223 0.1566 1.1191 0.4687 0.2969 0.3046 0.4434 0.7167 0.4434 1.2344s-0.1465 0.932-0.4434 1.2441c-0.2968 0.3046-0.6699 0.4571-1.1191 0.4571-0.4568 0-0.8338-0.1525-1.1309-0.4571-0.2968-0.3121-0.4453-0.7264-0.4453-1.2441s0.1485-0.9298 0.4453-1.2344c0.2971-0.3121 0.6741-0.4687 1.1309-0.4687zm25.022 0c0.4719 0 0.8553 0.1421 1.1523 0.4238 0.3044 0.2741 0.457 0.6348 0.457 1.084s-0.1526 0.8159-0.457 1.0977c-0.297 0.274-0.6804 0.4101-1.1523 0.4101-0.472 0-0.8614-0.1361-1.166-0.4101-0.3047-0.2818-0.4571-0.6485-0.4571-1.0977s0.1524-0.8099 0.4571-1.084c0.3046-0.2817 0.694-0.4238 1.166-0.4238zm7.9472 0c0.4491 0 0.8221 0.1566 1.1192 0.4687 0.2968 0.3046 0.4453 0.7167 0.4453 1.2344s-0.1485 0.932-0.4453 1.2441c-0.2971 0.3046-0.6701 0.4571-1.1192 0.4571-0.4568 0-0.8338-0.1525-1.1308-0.4571-0.2968-0.3121-0.4453-0.7264-0.4453-1.2441s0.1485-0.9298 0.4453-1.2344c0.297-0.3121 0.674-0.4687 1.1308-0.4687z" stroke-width=".28428"/>
</g>
</g>
</g>
</g>
</svg>
