<?xml version="1.0" encoding="UTF-8"?>
<svg width="3.1798mm" height="3.0828mm" version="1.1" viewBox="0 0 3.1798 3.0828" xmlns="http://www.w3.org/2000/svg">
<g transform="translate(1386.1 -776.66)">
<g transform="matrix(.01322 -.01322 .01322 .01322 -1397.9 770.91)" fill="#3d3846" stroke-width=".92534">
<path transform="translate(0,552.36)" d="m185.94 162.5c-5.7856 0-10.443 4.6578-10.443 10.443v42.613c0 5.7856 4.6578 10.443 10.443 10.443h2.0566v-63.5zm10.707 0v63.5h68.2v-63.5zm76.85 0v63.5h2.0566c5.7856 0 10.443-4.6578 10.443-10.443v-42.613c0-5.7856-4.6578-10.443-10.443-10.443z"/>
<rect x="226" y="746.61" width="9.5" height="48.5" ry="0"/>
<path d="m226 785.61h9.5c1.662 0 2.8884 1.3417 3 3l6.8177 101.26c0.15749 2.3391-1.8874 4.2317-4.2317 4.2317h-13.4c-2.3444 0-4.2212-1.8874-4.2317-4.2317l-0.45368-101.26c-7e-3 -1.662 1.338-3 3-3z"/>
</g>
</g>
</svg>
