<?xml version="1.0" encoding="UTF-8"?>
<svg width="3.2365mm" height="3.0627mm" version="1.1" viewBox="0 0 3.2365 3.0627" xmlns="http://www.w3.org/2000/svg">
<g transform="translate(1386.1 -776.6)">
<rect x="-1386.1" y="776.6" width="3.2365" height="3.0627" fill="none" stop-color="#000000" stroke-width=".11031" style="-inkscape-stroke:none"/>
<g transform="rotate(-4.4219 -1384.5 778.24)" fill="#3d3846" stroke-width=".0173">
<path d="m-1386 777.9c-0.078 0.0758-0.078 0.19898 0 0.27607l0.5584 0.56815c0.076 0.0771 0.1991 0.0781 0.2762 2e-3l0.027-0.027-0.8322-0.84663zm0.1428-0.14033 0.8323 0.84664 0.9092-0.8938-0.8323-0.84664zm1.0245-1.0072 0.8323 0.84665 0.027-0.027c0.078-0.0758 0.079-0.19897 0-0.27608l-0.5584-0.56814c-0.075-0.0772-0.1991-0.0781-0.2762-2e-3z"/>
<rect transform="rotate(-45.396)" x="-1526.4" y="-439.99" width=".17761" height=".90673" ry="0"/>
<path d="m-1384.6 778.31 0.1247-0.12645c0.022-0.0221 0.055-0.0213 0.079-5.5e-4l1.3333 1.1711c0.033 0.0289 0.03 0.0795 8e-4 0.11188l-0.1701 0.18675c-0.029 0.0323-0.081 0.032-0.1119 7.7e-4l-1.2555-1.2642c-0.022-0.0222-0.022-0.0572-6e-4 -0.0793z"/>
</g>
</g>
</svg>
