<?xml version="1.0" encoding="UTF-8"?>
<svg width="4.1068mm" height="3.382mm" version="1.1" viewBox="0 0 4.1068 3.382" xmlns="http://www.w3.org/2000/svg">
<g transform="translate(1386.6 -770.74)">
<path d="m-1386.5 770.84h3.9136v3.1888h-3.9136z" fill="none" stop-color="#000000" stroke="#3d3846" stroke-linecap="round" stroke-linejoin="bevel" stroke-width=".1932" style="-inkscape-stroke:none;font-variation-settings:normal;paint-order:fill markers stroke"/>
<path d="m-1384.6 772.07q0 0.0707-0.018 0.1352-0.017 0.0634-0.054 0.12272-0.036 0.0593-0.1009 0.10609-0.063 0.0468-0.1508 0.0728l0.4462 0.61777h-0.3412l-0.4139-0.57305h-0.2506v0.57305h-0.2621v-1.4779h0.6292q0.047 0 0.085 3e-3 0.04 2e-3 0.095 0.0125 0.056 9e-3 0.099 0.026 0.044 0.0166 0.089 0.0489 0.047 0.0322 0.077 0.0759 0.031 0.0426 0.051 0.10921 0.02 0.0655 0.02 0.14768zm-0.8829-0.18304v0.42328h0.2413q0.062 0 0.1102-4e-3 0.048-4e-3 0.099-0.0166 0.051-0.0135 0.083-0.0364 0.033-0.0229 0.054-0.0634 0.022-0.0406 0.022-0.0957 0-0.20696-0.3193-0.20696z" fill="#3d3846" stroke-width=".047715"/>
<path d="m-1383.7 772.08q0.078 0 0.1508 0.0156 0.073 0.0156 0.1435 0.0541 0.071 0.0374 0.1228 0.0957 0.052 0.0572 0.084 0.14976 0.032 0.0915 0.032 0.20801 0 0.2548-0.154 0.40041-0.1539 0.14456-0.4149 0.14456-0.1217 0-0.2382-0.0354v0.56681h-0.2662v-1.5798h0.1892l0.024 0.0489q0.1591-0.0686 0.3265-0.0686zm-0.068 0.22672q-0.1029 0-0.2059 0.0364v0.55433q0.1082 0.0312 0.209 0.0312 0.047 0 0.091-7e-3t0.091-0.027q0.048-0.0208 0.083-0.053t0.058-0.0863q0.023-0.0551 0.023-0.12584 0-0.078-0.024-0.13728-0.023-0.0603-0.058-0.0936-0.035-0.0343-0.084-0.0562-0.049-0.0218-0.093-0.0281-0.044-7e-3 -0.091-7e-3z" fill="#3d3846" stroke-width=".047715"/>
</g>
</svg>
