<!-- Created with Inkscape (http://www.inkscape.org/) --><svg xmlns:inkscape="http://www.inkscape.org/namespaces/inkscape" xmlns:sodipodi="http://sodipodi.sourceforge.net/DTD/sodipodi-0.dtd" xmlns="http://www.w3.org/2000/svg" xmlns:svg="http://www.w3.org/2000/svg" sodipodi:docname="multipage-export-y0ln1f9f.svg" inkscape:version="1.1 (c68e22c387, 2021-05-23)" id="svg5" version="1.1" viewBox="0 0 3.5422204 3.2949998" height="3.2949998mm" width="3.5422204mm">
  <sodipodi:namedview id="namedview7" pagecolor="#ffffff" bordercolor="#666666" borderopacity="1.0" inkscape:pageshadow="2" inkscape:pageopacity="0.0" inkscape:pagecheckerboard="0" inkscape:document-units="mm" showgrid="false" inkscape:zoom="4.0000001" inkscape:cx="-5216.8749" inkscape:cy="2935.6249" inkscape:window-width="1366" inkscape:window-height="708" inkscape:window-x="0" inkscape:window-y="28" inkscape:window-maximized="1" inkscape:current-layer="layer1" inkscape:snap-global="true"/>
  <defs id="defs2">
    <clipPath clipPathUnits="userSpaceOnUse" id="clipPath3462">
      <rect style="font-variation-settings:normal;vector-effect:none;fill:#3584e4;fill-opacity:1;stroke-width:0.116562;stroke-linecap:butt;stroke-linejoin:miter;stroke-miterlimit:4;stroke-dasharray:none;stroke-dashoffset:0;stroke-opacity:1;-inkscape-stroke:none;stop-color:#000000" id="rect3464" width="69.780762" height="6.3498821" x="-1395.019" y="572.26617"/>
    </clipPath>
  </defs>
  <g inkscape:label="Layer 1" inkscape:groupmode="layer" id="layer1" transform="translate(1386.278,-782.41087)">
    <g id="g1204" transform="matrix(0.0267047,0,0,0.0267047,-1370.1957,770.85284)" style="stroke-width:0.912257">
      <path id="path1188" style="fill:none;stroke:#3d3846;stroke-width:7.23482;stroke-linecap:round;stroke-miterlimit:4;stroke-dasharray:none;stroke-opacity:1;paint-order:fill markers stroke" d="m -501.4985,451.38652 h 20.57229 c 0.83335,0 1.50424,0.67127 1.50424,1.50508 v 41.99201"/>
      <path id="path1190" style="color:#000000;fill:#3d3846;fill-opacity:1;stroke-width:3.44791;-inkscape-stroke:none;paint-order:fill markers stroke" d="m -2014.9491,1691.0286 h -240.4914 v 0 c -11.2047,0 -20.6914,9.4865 -20.6914,20.684 v 369.7589 c 0,11.1973 9.4867,20.684 20.6914,20.684 h 437.7682 c 11.2048,0 20.6841,-9.4867 20.6841,-20.684 v -97.2712 h -30 v 87.9552 h -419.1437 v -351.1269 h 179.2513" transform="scale(0.26458333)"/>
      <g id="g1196" transform="translate(-668.21352,358.01641)" style="stroke-width:0.912257">
        <ellipse style="fill:#3584e4;fill-opacity:1;stroke:none;stroke-width:6.0342;stroke-linecap:round;stroke-opacity:1;paint-order:fill markers stroke" id="ellipse1192" cx="-161.405" cy="-151.94" transform="scale(-1)" rx="5.2648492" ry="5.2678127"/>
        <path id="path1194" style="fill:none;stroke:#3d3846;stroke-width:7.31179;stroke-linecap:round;stroke-miterlimit:4;stroke-dasharray:none;paint-order:fill markers stroke" d="m 160.67842,138.04938 h 34.29673 v 27.78125 h -34.29673 c -7.8335,0 -14.13988,-6.19522 -14.13988,-13.89063 0,-7.6954 6.30638,-13.89062 14.13988,-13.89062 z"/>
      </g>
      <g id="g1202" style="stroke-width:0.912257">
        <path id="path1198" style="fill:none;fill-opacity:1;stroke:#3584e4;stroke-width:6.0342;stroke-linecap:round;stroke-miterlimit:4;stroke-dasharray:none;stroke-opacity:1;paint-order:fill markers stroke" d="m -567.21449,467.11231 53.84067,-31.10244 c 0.7217,-0.4169 1.63816,-0.1712 2.05483,0.5509 l 17.62877,30.55113"/>
        <path id="path1200" style="fill:none;stroke:#3d3846;stroke-width:8.59458;stroke-linecap:round;stroke-linejoin:miter;stroke-miterlimit:4;stroke-dasharray:none;stroke-opacity:1" d="m -577.58812,467.15613 h 93.83949"/>
      </g>
    </g>
  </g>
</svg>