<!-- Created with Inkscape (http://www.inkscape.org/) --><svg xmlns:inkscape="http://www.inkscape.org/namespaces/inkscape" xmlns:sodipodi="http://sodipodi.sourceforge.net/DTD/sodipodi-0.dtd" xmlns="http://www.w3.org/2000/svg" xmlns:svg="http://www.w3.org/2000/svg" sodipodi:docname="multipage-export-y0ln1f9f.svg" inkscape:version="1.1 (c68e22c387, 2021-05-23)" id="svg5" version="1.1" viewBox="0 0 3.1798406 3.0827978" height="3.0827978mm" width="3.1798406mm">
  <sodipodi:namedview id="namedview7" pagecolor="#ffffff" bordercolor="#666666" borderopacity="1.0" inkscape:pageshadow="2" inkscape:pageopacity="0.0" inkscape:pagecheckerboard="0" inkscape:document-units="mm" showgrid="false" inkscape:zoom="4.0000001" inkscape:cx="-5216.8749" inkscape:cy="2935.6249" inkscape:window-width="1366" inkscape:window-height="708" inkscape:window-x="0" inkscape:window-y="28" inkscape:window-maximized="1" inkscape:current-layer="layer1" inkscape:snap-global="true"/>
  <defs id="defs2">
    <clipPath clipPathUnits="userSpaceOnUse" id="clipPath3462">
      <rect style="font-variation-settings:normal;vector-effect:none;fill:#3584e4;fill-opacity:1;stroke-width:0.116562;stroke-linecap:butt;stroke-linejoin:miter;stroke-miterlimit:4;stroke-dasharray:none;stroke-dashoffset:0;stroke-opacity:1;-inkscape-stroke:none;stop-color:#000000" id="rect3464" width="69.780762" height="6.3498821" x="-1395.019" y="572.26617"/>
    </clipPath>
  </defs>
  <g inkscape:label="Layer 1" inkscape:groupmode="layer" id="layer1" transform="translate(1386.0968,-776.66437)">
    <g transform="matrix(0.01321968,-0.01321968,0.01321968,0.01321968,-1397.9477,770.91423)" fill="#555555" id="g1180" style="fill:#3d3846;stroke-width:0.925335">
      <path transform="translate(0,552.36)" d="m 185.94,162.5 c -5.7856,0 -10.443,4.6578 -10.443,10.443 v 42.613 c 0,5.7856 4.6578,10.443 10.443,10.443 h 2.0566 v -63.5 z m 10.707,0 V 226 h 68.2 v -63.5 z m 76.85,0 V 226 h 2.0566 c 5.7856,0 10.443,-4.6578 10.443,-10.443 v -42.613 c 0,-5.7856 -4.6578,-10.443 -10.443,-10.443 z" id="path1174" style="fill:#3d3846;stroke-width:0.925335"/>
      <rect x="226" y="746.60999" width="9.5" height="48.5" ry="0" id="rect1176" style="fill:#3d3846;stroke-width:0.925335"/>
      <path d="m 226,785.61 h 9.5 c 1.662,0 2.88835,1.34174 3,3 l 6.81768,101.25589 c 0.15749,2.33907 -1.8874,4.2317 -4.2317,4.2317 h -13.4 c -2.3444,0 -4.22119,-1.88735 -4.2317,-4.2317 L 223.0006,788.61 c -0.007,-1.662 1.338,-3 3,-3 z" id="path1178" sodipodi:nodetypes="cssssssssc" style="fill:#3d3846;stroke-width:0.925335"/>
    </g>
  </g>
</svg>