<!-- Created with Inkscape (http://www.inkscape.org/) --><svg xmlns:inkscape="http://www.inkscape.org/namespaces/inkscape" xmlns:sodipodi="http://sodipodi.sourceforge.net/DTD/sodipodi-0.dtd" xmlns="http://www.w3.org/2000/svg" xmlns:svg="http://www.w3.org/2000/svg" sodipodi:docname="multipage-export-03frcqyl.svg" inkscape:version="1.1 (c68e22c387, 2021-05-23)" id="svg5" version="1.1" viewBox="0 0 3.2365091 3.0626752" height="3.0626752mm" width="3.2365091mm">
  <sodipodi:namedview id="namedview7" pagecolor="#ffffff" bordercolor="#666666" borderopacity="1.0" inkscape:pageshadow="2" inkscape:pageopacity="0.0" inkscape:pagecheckerboard="0" inkscape:document-units="mm" showgrid="false" inkscape:zoom="29.321353" inkscape:cx="-5232.6883" inkscape:cy="2942.0027" inkscape:window-width="1366" inkscape:window-height="708" inkscape:window-x="0" inkscape:window-y="28" inkscape:window-maximized="1" inkscape:current-layer="layer1" inkscape:snap-global="true"/>
  <defs id="defs2">
    <clipPath clipPathUnits="userSpaceOnUse" id="clipPath3462">
      <rect style="font-variation-settings:normal;vector-effect:none;fill:#3584e4;fill-opacity:1;stroke-width:0.116562;stroke-linecap:butt;stroke-linejoin:miter;stroke-miterlimit:4;stroke-dasharray:none;stroke-dashoffset:0;stroke-opacity:1;-inkscape-stroke:none;stop-color:#000000" id="rect3464" width="69.780762" height="6.3498821" x="-1395.019" y="572.26617"/>
    </clipPath>
  </defs>
  <g inkscape:label="Layer 1" inkscape:groupmode="layer" id="layer1" transform="translate(1386.1377,-776.6037)">
    <g id="g1421">
      <rect style="fill:none;stroke-width:0.110307;-inkscape-stroke:none;stop-color:#000000" id="rect1205" width="3.2365091" height="3.0626752" x="-1386.1377" y="776.6037"/>
      <g id="g1315" transform="rotate(-4.421937,-1384.451,778.23607)">
        <path d="m -1386.0456,777.9016 c -0.078,0.0758 -0.078,0.19898 0,0.27607 l 0.5584,0.56815 c 0.076,0.0771 0.1991,0.0781 0.2762,0.002 l 0.027,-0.027 -0.8322,-0.84663 z m 0.1428,-0.14033 0.8323,0.84664 0.9092,-0.8938 -0.8323,-0.84664 z m 1.0245,-1.00717 0.8323,0.84665 0.027,-0.027 c 0.078,-0.0758 0.079,-0.19897 0,-0.27608 l -0.5584,-0.56814 c -0.075,-0.0772 -0.1991,-0.0781 -0.2762,-0.002 z" id="path1174" style="fill:#3d3846;stroke-width:0.0172995"/>
        <rect x="-1526.3904" y="-439.99219" width="0.17760673" height="0.9067291" ry="0" id="rect1176" style="fill:#3d3846;stroke-width:0.0172995" transform="rotate(-45.396403)"/>
        <path d="m -1384.5753,778.31286 0.1247,-0.12645 c 0.022,-0.0221 0.055,-0.0213 0.079,-5.5e-4 l 1.3333,1.17111 c 0.033,0.0289 0.03,0.0795 8e-4,0.11188 l -0.1701,0.18675 c -0.029,0.0323 -0.081,0.032 -0.1119,7.7e-4 l -1.2555,-1.2642 c -0.022,-0.0222 -0.022,-0.0572 -6e-4,-0.0793 z" id="path1178" sodipodi:nodetypes="cssssssssc" style="fill:#3d3846;stroke-width:0.0172995"/>
      </g>
    </g>
  </g>
</svg>