<!-- Created with Inkscape (http://www.inkscape.org/) --><svg xmlns:inkscape="http://www.inkscape.org/namespaces/inkscape" xmlns:sodipodi="http://sodipodi.sourceforge.net/DTD/sodipodi-0.dtd" xmlns="http://www.w3.org/2000/svg" xmlns:svg="http://www.w3.org/2000/svg" sodipodi:docname="multipage-export-y0ln1f9f.svg" inkscape:version="1.1 (c68e22c387, 2021-05-23)" id="svg5" version="1.1" viewBox="0 0 4.1068039 3.382004" height="3.382004mm" width="4.1068039mm">
  <sodipodi:namedview id="namedview7" pagecolor="#ffffff" bordercolor="#666666" borderopacity="1.0" inkscape:pageshadow="2" inkscape:pageopacity="0.0" inkscape:pagecheckerboard="0" inkscape:document-units="mm" showgrid="false" inkscape:zoom="4.0000001" inkscape:cx="-5216.8749" inkscape:cy="2935.6249" inkscape:window-width="1366" inkscape:window-height="708" inkscape:window-x="0" inkscape:window-y="28" inkscape:window-maximized="1" inkscape:current-layer="layer1" inkscape:snap-global="true"/>
  <defs id="defs2">
    <clipPath clipPathUnits="userSpaceOnUse" id="clipPath3462">
      <rect style="font-variation-settings:normal;vector-effect:none;fill:#3584e4;fill-opacity:1;stroke-width:0.116562;stroke-linecap:butt;stroke-linejoin:miter;stroke-miterlimit:4;stroke-dasharray:none;stroke-dashoffset:0;stroke-opacity:1;-inkscape-stroke:none;stop-color:#000000" id="rect3464" width="69.780762" height="6.3498821" x="-1395.019" y="572.26617"/>
    </clipPath>
  </defs>
  <g inkscape:label="Layer 1" inkscape:groupmode="layer" id="layer1" transform="translate(1386.5603,-770.73955)">
    <g id="g26424">
      <path id="path1160" style="font-variation-settings:normal;vector-effect:none;fill:none;fill-opacity:1;stroke:#3d3846;stroke-width:0.193204;stroke-linecap:round;stroke-linejoin:bevel;stroke-miterlimit:4;stroke-dasharray:none;stroke-dashoffset:0;stroke-opacity:1;-inkscape-stroke:none;paint-order:fill markers stroke;stop-color:#000000" d="m -1386.4637,770.83615 h 3.9136 v 3.1888 h -3.9136 z" sodipodi:nodetypes="ccccc"/>
      <path d="m -1384.6337,772.07152 q 0,0.0707 -0.018,0.1352 -0.017,0.0634 -0.054,0.12272 -0.036,0.0593 -0.1009,0.10609 -0.063,0.0468 -0.1508,0.0728 l 0.4462,0.61777 h -0.3412 l -0.4139,-0.57305 h -0.2506 v 0.57305 h -0.2621 v -1.47787 h 0.6292 q 0.047,0 0.085,0.003 0.04,0.002 0.095,0.0125 0.056,0.009 0.099,0.026 0.044,0.0166 0.089,0.0489 0.047,0.0322 0.077,0.0759 0.031,0.0426 0.051,0.10921 0.02,0.0655 0.02,0.14768 z m -0.8829,-0.18304 v 0.42328 h 0.2413 q 0.062,0 0.1102,-0.004 0.048,-0.004 0.099,-0.0166 0.051,-0.0135 0.083,-0.0364 0.033,-0.0229 0.054,-0.0634 0.022,-0.0406 0.022,-0.0957 0,-0.20696 -0.3193,-0.20696 z" id="path26392" style="font-weight:bold;font-size:2.12996px;line-height:1.25;font-family:Cantarell;-inkscape-font-specification:'Cantarell Bold';fill:#3d3846;stroke-width:0.0477154"/>
      <path d="m -1383.6883,772.0788 q 0.078,0 0.1508,0.0156 0.073,0.0156 0.1435,0.0541 0.071,0.0374 0.1228,0.0957 0.052,0.0572 0.084,0.14976 0.032,0.0915 0.032,0.20801 0,0.2548 -0.154,0.40041 -0.1539,0.14456 -0.4149,0.14456 -0.1217,0 -0.2382,-0.0354 v 0.56681 h -0.2662 v -1.57979 h 0.1892 l 0.024,0.0489 q 0.1591,-0.0686 0.3265,-0.0686 z m -0.068,0.22672 q -0.1029,0 -0.2059,0.0364 v 0.55433 q 0.1082,0.0312 0.209,0.0312 0.047,0 0.091,-0.007 0.044,-0.007 0.091,-0.027 0.048,-0.0208 0.083,-0.053 0.035,-0.0322 0.058,-0.0863 0.023,-0.0551 0.023,-0.12584 0,-0.078 -0.024,-0.13728 -0.023,-0.0603 -0.058,-0.0936 -0.035,-0.0343 -0.084,-0.0562 -0.049,-0.0218 -0.093,-0.0281 -0.044,-0.007 -0.091,-0.007 z" id="path26394" style="font-weight:bold;font-size:2.12996px;line-height:1.25;font-family:Cantarell;-inkscape-font-specification:'Cantarell Bold';fill:#3d3846;stroke-width:0.0477154"/>
    </g>
  </g>
</svg>