<?xml version="1.0" encoding="UTF-8" standalone="no"?>
<!-- Created with Inkscape (http://www.inkscape.org/) -->

<svg
   width="210mm"
   height="297mm"
   viewBox="0 0 210 297"
   version="1.1"
   id="svg5551"
   inkscape:version="1.1 (c68e22c387, 2021-05-23)"
   sodipodi:docname="assets.svg"
   xmlns:inkscape="http://www.inkscape.org/namespaces/inkscape"
   xmlns:sodipodi="http://sodipodi.sourceforge.net/DTD/sodipodi-0.dtd"
   xmlns:xlink="http://www.w3.org/1999/xlink"
   xmlns="http://www.w3.org/2000/svg"
   xmlns:svg="http://www.w3.org/2000/svg">
  <sodipodi:namedview
     id="namedview5553"
     pagecolor="#241f31"
     bordercolor="#666666"
     borderopacity="1.0"
     inkscape:pageshadow="2"
     inkscape:pageopacity="0"
     inkscape:pagecheckerboard="false"
     inkscape:document-units="mm"
     showgrid="false"
     inkscape:zoom="0.65386544"
     inkscape:cx="-6.1174666"
     inkscape:cy="228.64031"
     inkscape:window-width="1366"
     inkscape:window-height="708"
     inkscape:window-x="0"
     inkscape:window-y="28"
     inkscape:window-maximized="1"
     inkscape:current-layer="layer1"
     showborder="false" />
  <defs
     id="defs5548">
    <linearGradient
       inkscape:collect="always"
       id="linearGradient2912">
      <stop
         style="stop-color:#3584e4;stop-opacity:1"
         offset="0"
         id="stop2908" />
      <stop
         style="stop-color:#33d17a;stop-opacity:1"
         offset="1"
         id="stop2910" />
    </linearGradient>
    <linearGradient
       inkscape:collect="always"
       xlink:href="#linearGradient2912"
       id="linearGradient927"
       x1="-1917.3444"
       y1="626.21228"
       x2="-1882.6982"
       y2="659.90131"
       gradientUnits="userSpaceOnUse" />
    <linearGradient
       inkscape:collect="always"
       xlink:href="#linearGradient2912"
       id="linearGradient927-5"
       x1="-1917.3444"
       y1="626.21228"
       x2="-1882.6982"
       y2="659.90131"
       gradientUnits="userSpaceOnUse" />
  </defs>
  <g
     inkscape:label="Layer 1"
     inkscape:groupmode="layer"
     id="layer1">
    <g
       id="tab"
       transform="matrix(2.8125001,0,0,2.8125001,5375.9336,-1744.7331)"
       inkscape:label="tab">
      <rect
         style="font-variation-settings:normal;vector-effect:none;fill:none;fill-opacity:1;stroke:none;stroke-width:0.356903px;stroke-linecap:butt;stroke-linejoin:miter;stroke-miterlimit:4;stroke-dasharray:none;stroke-dashoffset:0;stroke-opacity:1;-inkscape-stroke:none;stop-color:#000000"
         id="rect1601"
         width="16.933332"
         height="16.933332"
         x="-1932.0144"
         y="634.52911" />
      <path
         style="font-variation-settings:normal;vector-effect:none;fill:#3584e4;fill-opacity:1;stroke:none;stroke-width:0.38069201px;stroke-linecap:butt;stroke-linejoin:miter;stroke-miterlimit:4;stroke-dasharray:none;stroke-dashoffset:0;stroke-opacity:1;-inkscape-stroke:none;stop-color:#000000;opacity:1;stop-opacity:1"
         d="m -1926.5944,650.07209 c -1.2285,-0.71415 -2.4166,-1.52911 -2.6398,-1.81104 -0.3364,-0.42443 -0.4071,-1.03068 -0.4115,-3.52518 -0.01,-2.98574 0,-3.01806 0.6415,-3.61897 1.1068,-1.03787 4.5797,-2.92845 5.388,-2.93307 1.0731,-0.006 5.6039,2.71956 5.9635,3.58776 0.1667,0.40249 0.2387,1.67464 0.1894,3.34782 -0.066,2.28223 -0.1508,2.77726 -0.5409,3.20792 -0.7545,0.83256 -4.899,3.06656 -5.6664,3.05428 -0.395,-0.006 -1.646,-0.56654 -2.9238,-1.30952 z m 4.5313,-1.95302 c 0.4875,-0.11325 1.1622,-0.38634 1.4987,-0.60688 l 0.612,-0.40098 -0.7049,-0.70489 c -0.5954,-0.59541 -0.7802,-0.6646 -1.1896,-0.44545 -0.9999,0.53514 -3.1016,0.0695 -3.1016,-0.6869 0,-0.11787 1.243,-0.24413 2.7624,-0.28056 l 2.7624,-0.0661 -0.055,-0.9214 c -0.089,-1.436 -0.7691,-2.5324 -1.9468,-3.13421 -3.045,-1.55574 -6.5023,0.45761 -6.2743,3.65392 0.1922,2.69332 2.6813,4.27999 5.6378,3.5936 z m -3.1207,-4.67577 c 0,-0.47524 1.0102,-1.21986 1.6549,-1.21986 0.6722,0 1.6365,0.69272 1.6365,1.17554 0,0.13435 -0.7051,0.23513 -1.6455,0.23513 -0.9052,0 -1.6459,-0.086 -1.6459,-0.19081 z m -4.1334,-3.68849 c 0.3595,-0.99737 0.4059,-1.71951 0.1668,-2.58558 l -0.2483,-0.89928 0.7621,0.73864 c 0.4189,0.40623 1.1052,0.80725 1.5244,0.89113 1.085,0.21697 1.1264,0.48428 0.1043,0.67167 -0.4969,0.0911 -1.2277,0.48605 -1.6791,0.90745 -0.611,0.57023 -0.7595,0.63533 -0.6302,0.27597 z m 10.6554,-0.28539 c -0.3552,-0.35534 -1.0425,-0.7627 -1.5267,-0.90524 l -0.881,-0.25919 1.0151,-0.31629 c 0.5587,-0.17398 1.221,-0.57808 1.4728,-0.89797 0.573,-0.72844 0.7422,-0.58418 0.4614,0.39392 -0.1382,0.48263 -0.1292,1.00543 0.025,1.44886 0.3665,1.05106 0.1512,1.25427 -0.5671,0.53591 z m -6.1105,-2.7393 c 0.4203,-0.47903 0.764,-1.12554 0.764,-1.43668 0,-0.87626 0.4133,-0.92259 0.593,-0.0665 0.089,0.42137 0.4942,1.12396 0.9007,1.56127 l 0.7399,0.79509 -0.7054,-0.18815 c -0.8982,-0.23971 -1.4689,-0.23753 -2.351,0.009 l -0.7054,0.1971 0.7642,-0.871 z"
         id="path1320-0"
         inkscape:export-filename="/home/rivanfebrian123/logo-e-tilang.png"
         inkscape:export-xdpi="316.1651"
         inkscape:export-ydpi="316.1651"
         sodipodi:nodetypes="ssccsscssscscssssccssccsssssccssssscscssscccsscscssccss" />
    </g>
    <g
       id="app"
       transform="matrix(2.4902057,0,0,2.4902057,4798.3671,-1537.6444)"
       inkscape:label="app">
      <rect
         style="font-variation-settings:normal;vector-effect:none;fill:url(#linearGradient927);fill-opacity:1;stroke:none;stroke-width:0.429963px;stroke-linecap:butt;stroke-linejoin:miter;stroke-miterlimit:4;stroke-dasharray:none;stroke-dashoffset:0;stroke-opacity:1;-inkscape-stroke:none;stop-color:#000000"
         id="rect1631"
         width="20.399921"
         height="20.399921"
         x="-1907.783"
         y="632.79541" />
      <path
         style="font-variation-settings:normal;vector-effect:none;fill:#ffffff;fill-opacity:1;stroke:none;stroke-width:0.487277px;stroke-linecap:butt;stroke-linejoin:miter;stroke-miterlimit:4;stroke-dasharray:none;stroke-dashoffset:0;stroke-opacity:1;-inkscape-stroke:none;stop-color:#000000"
         d="m -1900.6301,650.07209 c -1.2285,-0.71415 -2.4166,-1.52911 -2.6398,-1.81104 -0.3364,-0.42443 -0.4071,-1.03068 -0.4115,-3.52518 -0.01,-2.98574 0,-3.01806 0.6415,-3.61897 1.1068,-1.03787 4.5797,-2.92845 5.388,-2.93307 1.0731,-0.006 5.6039,2.71956 5.9635,3.58776 0.1667,0.40249 0.2387,1.67464 0.1894,3.34782 -0.066,2.28223 -0.1508,2.77726 -0.5409,3.20792 -0.7545,0.83256 -4.899,3.06656 -5.6664,3.05428 -0.395,-0.006 -1.646,-0.56654 -2.9238,-1.30952 z m 4.5313,-1.95302 c 0.4875,-0.11325 1.1622,-0.38634 1.4987,-0.60688 l 0.612,-0.40098 -0.7049,-0.70489 c -0.5954,-0.59541 -0.7802,-0.6646 -1.1896,-0.44545 -0.9999,0.53514 -3.1016,0.0695 -3.1016,-0.6869 0,-0.11787 1.243,-0.24413 2.7624,-0.28056 l 2.7624,-0.0661 -0.055,-0.9214 c -0.089,-1.436 -0.7691,-2.5324 -1.9468,-3.13421 -3.045,-1.55574 -6.5023,0.45761 -6.2743,3.65392 0.1922,2.69332 2.6813,4.27999 5.6378,3.5936 z m -3.1207,-4.67577 c 0,-0.47524 1.0102,-1.21986 1.6549,-1.21986 0.6722,0 1.6365,0.69272 1.6365,1.17554 0,0.13435 -0.7051,0.23513 -1.6455,0.23513 -0.9052,0 -1.6459,-0.086 -1.6459,-0.19081 z m -4.1334,-3.68849 c 0.3595,-0.99737 0.4059,-1.71951 0.1668,-2.58558 l -0.2483,-0.89928 0.7621,0.73864 c 0.4189,0.40623 1.1052,0.80725 1.5244,0.89113 1.085,0.21697 1.1264,0.48428 0.1043,0.67167 -0.4969,0.0911 -1.2277,0.48605 -1.6791,0.90745 -0.611,0.57023 -0.7595,0.63533 -0.6302,0.27597 z m 10.6554,-0.28539 c -0.3552,-0.35534 -1.0425,-0.7627 -1.5267,-0.90524 l -0.881,-0.25919 1.0151,-0.31629 c 0.5587,-0.17398 1.221,-0.57808 1.4728,-0.89797 0.573,-0.72844 0.7422,-0.58418 0.4614,0.39392 -0.1382,0.48263 -0.1292,1.00543 0.025,1.44886 0.3665,1.05106 0.1512,1.25427 -0.5671,0.53591 z m -6.1105,-2.7393 c 0.4203,-0.47903 0.764,-1.12554 0.764,-1.43668 0,-0.87626 0.4133,-0.92259 0.593,-0.0665 0.089,0.42137 0.4942,1.12396 0.9007,1.56127 l 0.7399,0.79509 -0.7054,-0.18815 c -0.8982,-0.23971 -1.4689,-0.23753 -2.351,0.009 l -0.7054,0.1971 0.7642,-0.871 z"
         id="path1633"
         inkscape:export-filename="/home/rivanfebrian123/logo-e-tilang.png"
         inkscape:export-xdpi="316.1651"
         inkscape:export-ydpi="316.1651"
         sodipodi:nodetypes="ssccsscssscscssssccssccsssssccssssscscssscccsscscssccss" />
    </g>
    <g
       id="pin"
       transform="matrix(0.25000001,0,0,0.25000001,661.74407,-118.75219)"
       inkscape:label="pin">
      <rect
         style="font-variation-settings:normal;vector-effect:none;fill:none;fill-opacity:1;stroke:none;stroke-width:0.356903px;stroke-linecap:butt;stroke-linejoin:miter;stroke-miterlimit:4;stroke-dasharray:none;stroke-dashoffset:0;stroke-opacity:1;-inkscape-stroke:none;stop-color:#000000"
         id="rect932"
         width="16.933332"
         height="16.933332"
         x="-1932.0144"
         y="634.52911" />
      <path
         style="font-variation-settings:normal;vector-effect:none;fill:#000000;fill-opacity:1;stroke:none;stroke-width:0.487277px;stroke-linecap:butt;stroke-linejoin:miter;stroke-miterlimit:4;stroke-dasharray:none;stroke-dashoffset:0;stroke-opacity:1;-inkscape-stroke:none;stop-color:#000000"
         d="m -1926.5944,650.07209 c -1.2285,-0.71415 -2.4166,-1.52911 -2.6398,-1.81104 -0.3364,-0.42443 -0.4071,-1.03068 -0.4115,-3.52518 -0.01,-2.98574 0,-3.01806 0.6415,-3.61897 1.1068,-1.03787 4.5797,-2.92845 5.388,-2.93307 1.0731,-0.006 5.6039,2.71956 5.9635,3.58776 0.1667,0.40249 0.2387,1.67464 0.1894,3.34782 -0.066,2.28223 -0.1508,2.77726 -0.5409,3.20792 -0.7545,0.83256 -4.899,3.06656 -5.6664,3.05428 -0.395,-0.006 -1.646,-0.56654 -2.9238,-1.30952 z m 4.5313,-1.95302 c 0.4875,-0.11325 1.1622,-0.38634 1.4987,-0.60688 l 0.612,-0.40098 -0.7049,-0.70489 c -0.5954,-0.59541 -0.7802,-0.6646 -1.1896,-0.44545 -0.9999,0.53514 -3.1016,0.0695 -3.1016,-0.6869 0,-0.11787 1.243,-0.24413 2.7624,-0.28056 l 2.7624,-0.0661 -0.055,-0.9214 c -0.089,-1.436 -0.7691,-2.5324 -1.9468,-3.13421 -3.045,-1.55574 -6.5023,0.45761 -6.2743,3.65392 0.1922,2.69332 2.6813,4.27999 5.6378,3.5936 z m -3.1207,-4.67577 c 0,-0.47524 1.0102,-1.21986 1.6549,-1.21986 0.6722,0 1.6365,0.69272 1.6365,1.17554 0,0.13435 -0.7051,0.23513 -1.6455,0.23513 -0.9052,0 -1.6459,-0.086 -1.6459,-0.19081 z m -4.1334,-3.68849 c 0.3595,-0.99737 0.4059,-1.71951 0.1668,-2.58558 l -0.2483,-0.89928 0.7621,0.73864 c 0.4189,0.40623 1.1052,0.80725 1.5244,0.89113 1.085,0.21697 1.1264,0.48428 0.1043,0.67167 -0.4969,0.0911 -1.2277,0.48605 -1.6791,0.90745 -0.611,0.57023 -0.7595,0.63533 -0.6302,0.27597 z m 10.6554,-0.28539 c -0.3552,-0.35534 -1.0425,-0.7627 -1.5267,-0.90524 l -0.881,-0.25919 1.0151,-0.31629 c 0.5587,-0.17398 1.221,-0.57808 1.4728,-0.89797 0.573,-0.72844 0.7422,-0.58418 0.4614,0.39392 -0.1382,0.48263 -0.1292,1.00543 0.025,1.44886 0.3665,1.05106 0.1512,1.25427 -0.5671,0.53591 z m -6.1105,-2.7393 c 0.4203,-0.47903 0.764,-1.12554 0.764,-1.43668 0,-0.87626 0.4133,-0.92259 0.593,-0.0665 0.089,0.42137 0.4942,1.12396 0.9007,1.56127 l 0.7399,0.79509 -0.7054,-0.18815 c -0.8982,-0.23971 -1.4689,-0.23753 -2.351,0.009 l -0.7054,0.1971 0.7642,-0.871 z"
         id="path934"
         inkscape:export-filename="/home/rivanfebrian123/logo-e-tilang.png"
         inkscape:export-xdpi="316.1651"
         inkscape:export-ydpi="316.1651"
         sodipodi:nodetypes="ssccsscssscscssssccssccsssssccssssscscssscccsscscssccss" />
    </g>
  </g>
</svg>
